<svg width="170" height="63" viewBox="0 0 170 63" fill="none" xmlns="http://www.w3.org/2000/svg">
<line x1="69" y1="9" x2="69" y2="56" stroke="black" stroke-width="2"/>
<path d="M93.0776 41.6982C93.0776 43.7734 92.6911 45.4987 91.918 46.874C91.1449 48.2493 90.0544 49.2829 88.6465 49.9746C87.2467 50.6582 85.5988 51 83.7026 51H77.9287V33.1533H84.1055C86.026 33.1533 87.6536 33.4829 88.9883 34.1421C90.3229 34.8013 91.3361 35.7656 92.0278 37.0352C92.7277 38.3047 93.0776 39.859 93.0776 41.6982ZM88.0728 41.8691C88.0728 40.7868 87.9263 39.8916 87.6333 39.1836C87.3485 38.4674 86.9172 37.9344 86.3394 37.5845C85.7616 37.2264 85.0332 37.0474 84.1543 37.0474H82.7505V47.0449H83.8247C85.2896 47.0449 86.3638 46.6217 87.0474 45.7754C87.731 44.9209 88.0728 43.6188 88.0728 41.8691ZM102.233 36.9253C103.576 36.9253 104.735 37.1613 105.712 37.6333C106.688 38.0972 107.441 38.797 107.97 39.7329C108.499 40.6688 108.764 41.8407 108.764 43.2485V45.3726H100.231C100.272 46.0968 100.54 46.6909 101.037 47.1548C101.541 47.6187 102.282 47.8506 103.258 47.8506C104.121 47.8506 104.91 47.7651 105.626 47.5942C106.351 47.4233 107.095 47.1589 107.86 46.8008V50.231C107.193 50.5809 106.465 50.8372 105.675 51C104.886 51.1628 103.889 51.2441 102.685 51.2441C101.293 51.2441 100.048 50.9959 98.9492 50.4995C97.8506 50.0031 96.9839 49.234 96.3491 48.1924C95.7225 47.1507 95.4092 45.812 95.4092 44.1763C95.4092 42.5161 95.694 41.153 96.2637 40.0869C96.8333 39.0127 97.6309 38.2192 98.6562 37.7065C99.6816 37.1857 100.874 36.9253 102.233 36.9253ZM102.404 40.1724C101.842 40.1724 101.37 40.3514 100.988 40.7095C100.613 41.0594 100.394 41.6128 100.329 42.3696H104.43C104.422 41.9627 104.341 41.5924 104.186 41.2588C104.031 40.9251 103.804 40.6606 103.502 40.4653C103.209 40.27 102.843 40.1724 102.404 40.1724ZM121.74 46.752C121.74 47.6309 121.544 48.408 121.154 49.0835C120.763 49.759 120.137 50.2879 119.274 50.6704C118.419 51.0529 117.292 51.2441 115.893 51.2441C114.908 51.2441 114.025 51.1912 113.244 51.0854C112.471 50.9797 111.685 50.7762 110.888 50.4751V46.6543C111.758 47.0531 112.646 47.342 113.549 47.521C114.452 47.6919 115.164 47.7773 115.685 47.7773C116.222 47.7773 116.613 47.7204 116.857 47.6064C117.109 47.4844 117.235 47.3053 117.235 47.0693C117.235 46.8659 117.15 46.695 116.979 46.5566C116.816 46.4102 116.519 46.2433 116.088 46.0562C115.665 45.869 115.067 45.6167 114.293 45.2993C113.528 44.9819 112.89 44.6361 112.377 44.2617C111.872 43.8874 111.494 43.4398 111.242 42.9189C110.989 42.3981 110.863 41.7593 110.863 41.0024C110.863 39.6515 111.384 38.6343 112.426 37.9507C113.467 37.2671 114.847 36.9253 116.564 36.9253C117.475 36.9253 118.334 37.027 119.14 37.2305C119.945 37.4258 120.779 37.7147 121.642 38.0972L120.336 41.1733C119.652 40.8641 118.961 40.6159 118.261 40.4287C117.561 40.2415 117.003 40.1479 116.588 40.1479C116.214 40.1479 115.925 40.1968 115.722 40.2944C115.518 40.3921 115.417 40.5345 115.417 40.7217C115.417 40.8926 115.486 41.0431 115.624 41.1733C115.771 41.3035 116.043 41.4541 116.442 41.625C116.841 41.7959 117.423 42.036 118.188 42.3452C118.993 42.6707 119.656 43.0207 120.177 43.395C120.706 43.7612 121.097 44.2088 121.349 44.7378C121.61 45.2668 121.74 45.9382 121.74 46.752ZM129.198 37.1694V51H124.425V37.1694H129.198ZM126.83 31.603C127.514 31.603 128.108 31.7454 128.612 32.0303C129.125 32.3151 129.381 32.8807 129.381 33.7271C129.381 34.549 129.125 35.1064 128.612 35.3994C128.108 35.6842 127.514 35.8267 126.83 35.8267C126.13 35.8267 125.532 35.6842 125.036 35.3994C124.547 35.1064 124.303 34.549 124.303 33.7271C124.303 32.8807 124.547 32.3151 125.036 32.0303C125.532 31.7454 126.13 31.603 126.83 31.603ZM137.255 57.0059C135.294 57.0059 133.78 56.6763 132.714 56.0171C131.656 55.366 131.127 54.4261 131.127 53.1973C131.127 52.3753 131.383 51.6958 131.896 51.1587C132.409 50.6216 133.178 50.235 134.203 49.999C133.78 49.82 133.41 49.5311 133.092 49.1323C132.783 48.7336 132.628 48.3389 132.628 47.9482C132.628 47.5169 132.746 47.1385 132.982 46.813C133.218 46.4793 133.711 46.0846 134.459 45.6289C133.743 45.3115 133.178 44.8151 132.763 44.1396C132.356 43.4642 132.152 42.6423 132.152 41.6738C132.152 40.6729 132.38 39.8184 132.836 39.1104C133.3 38.4023 133.971 37.8612 134.85 37.4868C135.737 37.1125 136.815 36.9253 138.085 36.9253C138.256 36.9253 138.516 36.9416 138.866 36.9741C139.216 36.9985 139.57 37.0311 139.928 37.0718C140.286 37.1043 140.563 37.1369 140.758 37.1694H145.58V39.4766L143.688 40.1724C143.818 40.4084 143.916 40.6647 143.981 40.9414C144.046 41.2181 144.079 41.5111 144.079 41.8203C144.079 43.3096 143.554 44.4652 142.504 45.2871C141.462 46.109 139.904 46.52 137.829 46.52C137.316 46.52 136.909 46.4875 136.608 46.4224C136.551 46.5282 136.506 46.634 136.474 46.7397C136.449 46.8374 136.437 46.931 136.437 47.0205C136.437 47.2077 136.547 47.3582 136.767 47.4722C136.994 47.578 137.267 47.6512 137.584 47.6919C137.91 47.7326 138.219 47.7529 138.512 47.7529H140.807C142.361 47.7529 143.525 48.0785 144.298 48.7295C145.071 49.3805 145.458 50.3612 145.458 51.6714C145.458 53.356 144.738 54.6662 143.297 55.6021C141.865 56.5379 139.851 57.0059 137.255 57.0059ZM137.487 54.0273C138.065 54.0273 138.646 53.9744 139.232 53.8687C139.818 53.771 140.311 53.6082 140.709 53.3804C141.108 53.1525 141.308 52.8514 141.308 52.4771C141.308 52.1922 141.19 51.9766 140.954 51.8301C140.718 51.6917 140.412 51.5981 140.038 51.5493C139.664 51.5005 139.269 51.4761 138.854 51.4761H136.999C136.657 51.4761 136.343 51.529 136.059 51.6348C135.782 51.7487 135.562 51.8993 135.399 52.0864C135.237 52.2736 135.155 52.4852 135.155 52.7212C135.155 53.1118 135.367 53.4251 135.79 53.6611C136.213 53.9053 136.779 54.0273 137.487 54.0273ZM138.134 43.8223C138.59 43.8223 138.939 43.6473 139.184 43.2974C139.436 42.9474 139.562 42.4225 139.562 41.7227C139.562 41.0065 139.444 40.4694 139.208 40.1113C138.972 39.7533 138.614 39.5742 138.134 39.5742C137.637 39.5742 137.267 39.7533 137.023 40.1113C136.779 40.4613 136.657 40.9902 136.657 41.6982C136.657 42.4062 136.779 42.9393 137.023 43.2974C137.267 43.6473 137.637 43.8223 138.134 43.8223ZM156.347 36.9253C157.771 36.9253 158.935 37.3281 159.838 38.1338C160.741 38.9395 161.193 40.2293 161.193 42.0034V51H156.42V43.4561C156.42 42.5365 156.286 41.8447 156.017 41.3809C155.757 40.9089 155.333 40.6729 154.748 40.6729C153.844 40.6729 153.238 41.0431 152.929 41.7837C152.619 42.5161 152.465 43.57 152.465 44.9453V51H147.692V37.1694H151.293L151.94 39.0005H152.123C152.416 38.561 152.766 38.1867 153.173 37.8774C153.58 37.5682 154.048 37.3322 154.577 37.1694C155.106 37.0067 155.696 36.9253 156.347 36.9253Z" fill="black"/>
<path d="M77.9287 27V9.15332H82.7749V27H77.9287ZM91.0879 33.0059C89.1266 33.0059 87.613 32.6763 86.5469 32.0171C85.4889 31.366 84.96 30.4261 84.96 29.1973C84.96 28.3753 85.2163 27.6958 85.729 27.1587C86.2417 26.6216 87.0107 26.235 88.0361 25.999C87.613 25.82 87.2427 25.5311 86.9253 25.1323C86.616 24.7336 86.4614 24.3389 86.4614 23.9482C86.4614 23.5169 86.5794 23.1385 86.8154 22.813C87.0514 22.4793 87.5438 22.0846 88.2925 21.6289C87.5763 21.3115 87.0107 20.8151 86.5957 20.1396C86.1888 19.4642 85.9854 18.6423 85.9854 17.6738C85.9854 16.6729 86.2132 15.8184 86.6689 15.1104C87.1328 14.4023 87.8042 13.8612 88.6831 13.4868C89.5701 13.1125 90.6484 12.9253 91.918 12.9253C92.0889 12.9253 92.3493 12.9416 92.6992 12.9741C93.0492 12.9985 93.4032 13.0311 93.7612 13.0718C94.1193 13.1043 94.396 13.1369 94.5913 13.1694H99.4131V15.4766L97.521 16.1724C97.6512 16.4084 97.7489 16.6647 97.814 16.9414C97.8791 17.2181 97.9116 17.5111 97.9116 17.8203C97.9116 19.3096 97.3867 20.4652 96.3369 21.2871C95.2952 22.109 93.7368 22.52 91.6616 22.52C91.1489 22.52 90.742 22.4875 90.4409 22.4224C90.384 22.5282 90.3392 22.634 90.3066 22.7397C90.2822 22.8374 90.27 22.931 90.27 23.0205C90.27 23.2077 90.3799 23.3582 90.5996 23.4722C90.8275 23.578 91.1001 23.6512 91.4175 23.6919C91.743 23.7326 92.0522 23.7529 92.3452 23.7529H94.6401C96.1945 23.7529 97.3582 24.0785 98.1313 24.7295C98.9045 25.3805 99.291 26.3612 99.291 27.6714C99.291 29.356 98.5708 30.6662 97.1304 31.6021C95.6981 32.5379 93.6839 33.0059 91.0879 33.0059ZM91.3198 30.0273C91.8976 30.0273 92.4795 29.9744 93.0654 29.8687C93.6514 29.771 94.1437 29.6082 94.5425 29.3804C94.9412 29.1525 95.1406 28.8514 95.1406 28.4771C95.1406 28.1922 95.0226 27.9766 94.7866 27.8301C94.5506 27.6917 94.2454 27.5981 93.8711 27.5493C93.4967 27.5005 93.1021 27.4761 92.687 27.4761H90.8315C90.4897 27.4761 90.1764 27.529 89.8916 27.6348C89.6149 27.7487 89.3952 27.8993 89.2324 28.0864C89.0697 28.2736 88.9883 28.4852 88.9883 28.7212C88.9883 29.1118 89.1999 29.4251 89.623 29.6611C90.0462 29.9053 90.6118 30.0273 91.3198 30.0273ZM91.9668 19.8223C92.4225 19.8223 92.7725 19.6473 93.0166 19.2974C93.2689 18.9474 93.395 18.4225 93.395 17.7227C93.395 17.0065 93.277 16.4694 93.041 16.1113C92.805 15.7533 92.4469 15.5742 91.9668 15.5742C91.4704 15.5742 91.1001 15.7533 90.856 16.1113C90.6118 16.4613 90.4897 16.9902 90.4897 17.6982C90.4897 18.4062 90.6118 18.9393 90.856 19.2974C91.1001 19.6473 91.4704 19.8223 91.9668 19.8223ZM110.18 12.9253C111.604 12.9253 112.768 13.3281 113.671 14.1338C114.574 14.9395 115.026 16.2293 115.026 18.0034V27H110.253V19.4561C110.253 18.5365 110.119 17.8447 109.85 17.3809C109.59 16.9089 109.167 16.6729 108.581 16.6729C107.677 16.6729 107.071 17.0431 106.762 17.7837C106.452 18.5161 106.298 19.57 106.298 20.9453V27H101.525V13.1694H105.126L105.773 15.0005H105.956C106.249 14.561 106.599 14.1867 107.006 13.8774C107.413 13.5682 107.881 13.3322 108.41 13.1694C108.939 13.0067 109.529 12.9253 110.18 12.9253ZM125.023 12.9253C126.773 12.9253 128.14 13.3607 129.125 14.2314C130.11 15.0941 130.602 16.327 130.602 17.9302V27H127.294L126.378 25.1689H126.281C125.89 25.6572 125.487 26.056 125.072 26.3652C124.665 26.6663 124.197 26.8861 123.668 27.0244C123.139 27.1709 122.493 27.2441 121.728 27.2441C120.93 27.2441 120.214 27.0814 119.579 26.7559C118.944 26.4303 118.444 25.938 118.078 25.2788C117.711 24.6196 117.528 23.7855 117.528 22.7764C117.528 21.2952 118.041 20.1966 119.066 19.4805C120.092 18.7643 121.577 18.3615 123.522 18.272L125.829 18.1987V18.0034C125.829 17.3849 125.674 16.9455 125.365 16.6851C125.064 16.4246 124.657 16.2944 124.145 16.2944C123.599 16.2944 122.989 16.3921 122.313 16.5874C121.646 16.7746 120.975 17.0187 120.299 17.3198L118.92 14.1704C119.717 13.7635 120.621 13.4543 121.63 13.2427C122.639 13.0311 123.77 12.9253 125.023 12.9253ZM125.854 20.8232L124.755 20.8721C123.876 20.9046 123.257 21.0592 122.899 21.3359C122.549 21.6045 122.375 21.991 122.375 22.4956C122.375 22.9676 122.501 23.3175 122.753 23.5454C123.005 23.7651 123.339 23.875 123.754 23.875C124.332 23.875 124.824 23.6919 125.231 23.3257C125.646 22.9595 125.854 22.4834 125.854 21.8975V20.8232ZM140.148 27.2441C138.748 27.2441 137.532 26.9959 136.498 26.4995C135.465 25.995 134.663 25.2218 134.093 24.1802C133.532 23.1304 133.251 21.7876 133.251 20.1519C133.251 18.4754 133.564 17.1042 134.191 16.0381C134.826 14.972 135.692 14.1867 136.791 13.6821C137.89 13.1776 139.135 12.9253 140.526 12.9253C141.373 12.9253 142.174 13.0189 142.931 13.2061C143.696 13.3932 144.404 13.6496 145.055 13.9751L143.651 17.5029C143.082 17.2507 142.549 17.0513 142.052 16.9048C141.564 16.7502 141.055 16.6729 140.526 16.6729C140.046 16.6729 139.623 16.799 139.257 17.0513C138.891 17.3035 138.606 17.686 138.402 18.1987C138.199 18.7033 138.097 19.3462 138.097 20.1274C138.097 20.925 138.199 21.5679 138.402 22.0562C138.614 22.5444 138.903 22.8984 139.269 23.1182C139.643 23.3379 140.071 23.4478 140.551 23.4478C141.243 23.4478 141.93 23.342 142.614 23.1304C143.306 22.9106 143.961 22.6095 144.579 22.2271V26.0234C144.009 26.3978 143.367 26.6948 142.65 26.9146C141.934 27.1343 141.1 27.2441 140.148 27.2441ZM152.123 13.1694V27H147.35V13.1694H152.123ZM149.755 7.60303C150.438 7.60303 151.033 7.74544 151.537 8.03027C152.05 8.3151 152.306 8.8807 152.306 9.72705C152.306 10.549 152.05 11.1064 151.537 11.3994C151.033 11.6842 150.438 11.8267 149.755 11.8267C149.055 11.8267 148.457 11.6842 147.96 11.3994C147.472 11.1064 147.228 10.549 147.228 9.72705C147.228 8.8807 147.472 8.3151 147.96 8.03027C148.457 7.74544 149.055 7.60303 149.755 7.60303ZM168.664 20.0542C168.664 21.2098 168.505 22.2352 168.188 23.1304C167.87 24.0256 167.41 24.7783 166.808 25.3887C166.206 25.999 165.478 26.4629 164.623 26.7803C163.769 27.0895 162.804 27.2441 161.73 27.2441C160.729 27.2441 159.809 27.0895 158.971 26.7803C158.141 26.4629 157.417 25.999 156.798 25.3887C156.18 24.7783 155.7 24.0256 155.358 23.1304C155.024 22.2352 154.857 21.2098 154.857 20.0542C154.857 18.5243 155.134 17.2303 155.688 16.1724C156.249 15.1144 157.047 14.3088 158.08 13.7554C159.122 13.202 160.363 12.9253 161.803 12.9253C163.13 12.9253 164.31 13.202 165.343 13.7554C166.377 14.3088 167.187 15.1144 167.772 16.1724C168.367 17.2303 168.664 18.5243 168.664 20.0542ZM159.704 20.0542C159.704 20.8436 159.773 21.5109 159.911 22.0562C160.049 22.5933 160.269 23.0042 160.57 23.2891C160.88 23.5658 161.282 23.7041 161.779 23.7041C162.275 23.7041 162.67 23.5658 162.963 23.2891C163.256 23.0042 163.467 22.5933 163.598 22.0562C163.736 21.5109 163.805 20.8436 163.805 20.0542C163.805 19.2648 163.736 18.6056 163.598 18.0767C163.467 17.5477 163.252 17.1489 162.951 16.8804C162.658 16.6118 162.259 16.4775 161.754 16.4775C161.03 16.4775 160.505 16.7786 160.18 17.3809C159.862 17.9831 159.704 18.8742 159.704 20.0542Z" fill="black"/>
<path d="M51 31.5232V11.9868L34.7209 3L19.6047 12.3775C24.6434 15.5033 34.7985 21.755 35.1085 21.755C35.4186 21.755 35.2377 34.2583 35.1085 40.5099L51 31.5232Z" fill="black"/>
<path d="M51 53.0132V34.2583L35.1085 42.8543L18.8295 34.2583V53.0132L35.1085 62L51 53.0132Z" fill="black"/>
<path d="M16.5039 32.6954V51.4503L1 42.0728V23.3179L16.5039 13.9404C21.5426 17.0662 31.6977 23.3179 32.0078 23.3179C32.3178 23.3179 21.801 29.5695 16.5039 32.6954Z" fill="black"/>
<path d="M51 31.5232V11.9868L34.7209 3L19.6047 12.3775C24.6434 15.5033 34.7985 21.755 35.1085 21.755C35.4186 21.755 35.2377 34.2583 35.1085 40.5099L51 31.5232Z" stroke="black"/>
<path d="M51 53.0132V34.2583L35.1085 42.8543L18.8295 34.2583V53.0132L35.1085 62L51 53.0132Z" stroke="black"/>
<path d="M16.5039 32.6954V51.4503L1 42.0728V23.3179L16.5039 13.9404C21.5426 17.0662 31.6977 23.3179 32.0078 23.3179C32.3178 23.3179 21.801 29.5695 16.5039 32.6954Z" stroke="black"/>
</svg>
