<svg width="200" height="484" viewBox="0 0 200 484" fill="none" xmlns="http://www.w3.org/2000/svg">
<g clip-path="url(#clip0_2_10)">
<rect width="200" height="484" fill="#435B66"/>
<path fill-rule="evenodd" clip-rule="evenodd" d="M75.7665 298.105C113.053 301.863 189.226 309.216 195.623 308.566L110.879 345.515L96.0234 325.457L93.696 322.314L131.114 316.9L88.0894 314.744L75.7665 298.105Z" fill="#FFC6AC"/>
<path d="M88.0894 314.744L86.6097 331.697L93.696 322.314L131.114 316.9L88.0894 314.744Z" fill="#A8897B"/>
<path d="M93.696 322.314L86.6097 331.697C89.0884 329.963 94.4412 326.288 96.0234 325.457L93.696 322.314Z" fill="#776C67"/>
<path fill-rule="evenodd" clip-rule="evenodd" d="M60.8808 287.758C51.6086 268.394 32.8409 228.772 31.9475 225.198L28.5062 278.05L42.2031 282.158L44.3491 282.801L39.9944 261.583L49.5185 284.351L60.8808 287.758Z" fill="#D6AA96"/>
<path d="M49.5185 284.351L40.6698 288.444L44.3491 282.801L39.9944 261.583L49.5185 284.351Z" fill="#A8897B"/>
<path d="M44.3491 282.801L40.6698 288.444C41.1223 286.771 42.0625 283.172 42.2031 282.158L44.3491 282.801Z" fill="#776C67"/>
<path d="M-4.09751 411.506C-3.5758 411.435 -3.33437 410.779 -2.97743 410.392C-1.68006 408.986 -0.342636 407.629 1.03606 406.302C8.86309 398.765 16.9012 391.268 26.1507 385.485C33.3009 381.014 41.4303 377.627 49.8609 376.628C53.888 376.151 59.5479 376.48 62.172 380.118C65.442 384.651 67.0399 390.913 68.412 396.244C69.7684 401.513 70.5242 406.708 69.6367 412.114C69.2961 414.189 68.6369 416.909 66.6444 418.069C64.0959 419.552 61.0262 416.611 59.4171 415.056C55.5265 411.296 53.0566 406.511 51.4747 401.377C49.2996 394.317 47.1494 385.755 48.2885 378.326C49.0425 373.408 51.1174 368.102 53.6887 363.856C56.6955 358.89 61.5702 354.821 65.628 350.72C70.1834 346.117 75.4593 342.446 80.656 338.624C81.45 338.039 82.4132 337.062 83.3991 336.929" stroke="#FFC6AC" stroke-dasharray="2 2"/>
<path d="M44.3683 294.378C43.4936 297.373 43.87 300.716 43.7444 303.793C43.4595 310.772 42.9758 317.726 41.0686 324.478C38.7326 332.749 35.9592 341.332 32.5345 349.218C28.8108 357.792 24.2086 366.605 18.6363 374.142C12.6154 382.286 5.56862 389.474 -1.07295 397.078C-2.49438 398.706 -3.87532 400.458 -5.41646 401.976C-5.79181 402.345 -6.19492 402.773 -6.68564 402.84" stroke="#FFC6AC" stroke-dasharray="2 2"/>
<path d="M21.025 118C20.8417 118 20.6917 117.942 20.575 117.825C20.4583 117.708 20.4 117.558 20.4 117.375V111.875L14.55 101.3C14.5333 101.25 14.5167 101.208 14.5 101.175C14.4833 101.125 14.475 101.075 14.475 101.025C14.475 100.892 14.525 100.775 14.625 100.675C14.7417 100.558 14.8667 100.5 15 100.5H17.65C17.8833 100.5 18.0667 100.558 18.2 100.675C18.3333 100.792 18.425 100.9 18.475 101L22.4 107.875L26.325 101C26.375 100.9 26.4667 100.792 26.6 100.675C26.7333 100.558 26.9167 100.5 27.15 100.5H29.8C29.9333 100.5 30.05 100.558 30.15 100.675C30.2667 100.775 30.325 100.892 30.325 101.025C30.325 101.075 30.3167 101.125 30.3 101.175C30.2833 101.208 30.2667 101.25 30.25 101.3L24.4 111.875V117.375C24.4 117.558 24.3417 117.708 24.225 117.825C24.1083 117.942 23.9583 118 23.775 118H21.025ZM36.149 118.25C34.7657 118.25 33.6074 118.025 32.674 117.575C31.7407 117.108 31.024 116.45 30.524 115.6C30.0407 114.75 29.774 113.758 29.724 112.625C29.7074 112.292 29.699 111.917 29.699 111.5C29.699 111.067 29.7074 110.692 29.724 110.375C29.774 109.225 30.0574 108.233 30.574 107.4C31.0907 106.55 31.8157 105.9 32.749 105.45C33.6824 104.983 34.8157 104.75 36.149 104.75C37.4657 104.75 38.5907 104.983 39.524 105.45C40.4574 105.9 41.1824 106.55 41.699 107.4C42.2157 108.233 42.499 109.225 42.549 110.375C42.5824 110.692 42.599 111.067 42.599 111.5C42.599 111.917 42.5824 112.292 42.549 112.625C42.499 113.758 42.224 114.75 41.724 115.6C41.2407 116.45 40.5324 117.108 39.599 117.575C38.6657 118.025 37.5157 118.25 36.149 118.25ZM36.149 115.5C36.9657 115.5 37.5824 115.25 37.999 114.75C38.4157 114.233 38.6407 113.483 38.674 112.5C38.6907 112.25 38.699 111.917 38.699 111.5C38.699 111.083 38.6907 110.75 38.674 110.5C38.6407 109.533 38.4157 108.792 37.999 108.275C37.5824 107.758 36.9657 107.5 36.149 107.5C35.3324 107.5 34.7074 107.758 34.274 108.275C33.8574 108.792 33.6324 109.533 33.599 110.5C33.5824 110.75 33.574 111.083 33.574 111.5C33.574 111.917 33.5824 112.25 33.599 112.5C33.6324 113.483 33.8574 114.233 34.274 114.75C34.7074 115.25 35.3324 115.5 36.149 115.5ZM49.9887 118.25C49.022 118.25 48.1637 118.033 47.4137 117.6C46.6803 117.15 46.1053 116.508 45.6887 115.675C45.2887 114.825 45.0887 113.8 45.0887 112.6V105.625C45.0887 105.442 45.147 105.292 45.2637 105.175C45.3803 105.058 45.522 105 45.6887 105H48.3387C48.522 105 48.672 105.058 48.7887 105.175C48.9053 105.292 48.9637 105.442 48.9637 105.625V112.45C48.9637 114.317 49.7803 115.25 51.4137 115.25C52.197 115.25 52.8137 115.008 53.2637 114.525C53.7303 114.025 53.9637 113.333 53.9637 112.45V105.625C53.9637 105.442 54.022 105.292 54.1387 105.175C54.2553 105.058 54.4053 105 54.5887 105H57.2387C57.4053 105 57.547 105.058 57.6637 105.175C57.7803 105.292 57.8387 105.442 57.8387 105.625V117.375C57.8387 117.558 57.7803 117.708 57.6637 117.825C57.547 117.942 57.4053 118 57.2387 118H54.7887C54.6053 118 54.4553 117.942 54.3387 117.825C54.222 117.708 54.1637 117.558 54.1637 117.375V116.4C53.7303 117 53.172 117.458 52.4887 117.775C51.8053 118.092 50.972 118.25 49.9887 118.25ZM67.1027 118C66.9361 118 66.7944 117.942 66.6777 117.825C66.5611 117.708 66.5027 117.558 66.5027 117.375V105.625C66.5027 105.442 66.5611 105.292 66.6777 105.175C66.7944 105.058 66.9361 105 67.1027 105H69.5527C69.7361 105 69.8861 105.058 70.0027 105.175C70.1194 105.292 70.1777 105.442 70.1777 105.625V106.6C70.6111 106.067 71.1694 105.625 71.8527 105.275C72.5361 104.925 73.3694 104.75 74.3527 104.75C75.3361 104.75 76.1944 104.975 76.9277 105.425C77.6777 105.858 78.2611 106.5 78.6777 107.35C79.1111 108.183 79.3277 109.2 79.3277 110.4V117.375C79.3277 117.558 79.2611 117.708 79.1277 117.825C79.0111 117.942 78.8694 118 78.7027 118H76.0527C75.8694 118 75.7194 117.942 75.6027 117.825C75.4861 117.708 75.4277 117.558 75.4277 117.375V110.55C75.4277 109.667 75.2111 108.983 74.7777 108.5C74.3611 108 73.7444 107.75 72.9277 107.75C72.1444 107.75 71.5194 108 71.0527 108.5C70.5861 108.983 70.3527 109.667 70.3527 110.55V117.375C70.3527 117.558 70.2944 117.708 70.1777 117.825C70.0611 117.942 69.9194 118 69.7527 118H67.1027ZM88.123 118.25C86.2064 118.25 84.6814 117.717 83.548 116.65C82.4314 115.583 81.8397 114.033 81.773 112C81.773 111.867 81.773 111.692 81.773 111.475C81.773 111.242 81.773 111.058 81.773 110.925C81.8397 109.642 82.1314 108.542 82.648 107.625C83.1647 106.692 83.8897 105.983 84.823 105.5C85.7564 105 86.848 104.75 88.098 104.75C89.498 104.75 90.6647 105.042 91.598 105.625C92.548 106.192 93.2564 106.975 93.723 107.975C94.2064 108.958 94.448 110.092 94.448 111.375V111.95C94.448 112.117 94.3814 112.258 94.248 112.375C94.1314 112.492 93.9897 112.55 93.823 112.55H85.648C85.648 112.567 85.648 112.6 85.648 112.65C85.648 112.683 85.648 112.717 85.648 112.75C85.6647 113.283 85.7647 113.775 85.948 114.225C86.148 114.658 86.423 115.008 86.773 115.275C87.1397 115.542 87.573 115.675 88.073 115.675C88.4897 115.675 88.8314 115.617 89.098 115.5C89.3647 115.383 89.5814 115.242 89.748 115.075C89.9314 114.908 90.0647 114.767 90.148 114.65C90.298 114.483 90.4147 114.383 90.498 114.35C90.598 114.3 90.748 114.275 90.948 114.275H93.548C93.7147 114.275 93.848 114.325 93.948 114.425C94.0647 114.508 94.1147 114.633 94.098 114.8C94.0814 115.067 93.9397 115.4 93.673 115.8C93.423 116.183 93.048 116.567 92.548 116.95C92.048 117.317 91.423 117.625 90.673 117.875C89.9397 118.125 89.0897 118.25 88.123 118.25ZM85.648 110.275H90.548V110.225C90.548 109.625 90.448 109.108 90.248 108.675C90.0647 108.225 89.7897 107.875 89.423 107.625C89.0564 107.375 88.6147 107.25 88.098 107.25C87.5814 107.25 87.1397 107.375 86.773 107.625C86.4064 107.875 86.123 108.225 85.923 108.675C85.7397 109.108 85.648 109.625 85.648 110.225V110.275ZM101.059 118C100.809 118 100.617 117.942 100.484 117.825C100.367 117.692 100.267 117.542 100.184 117.375L95.4838 105.775C95.4505 105.708 95.4338 105.633 95.4338 105.55C95.4338 105.4 95.4838 105.275 95.5838 105.175C95.7005 105.058 95.8338 105 95.9838 105H98.4088C98.6255 105 98.7838 105.058 98.8838 105.175C99.0005 105.292 99.0755 105.4 99.1088 105.5L102.184 113.75L105.259 105.5C105.309 105.4 105.384 105.292 105.484 105.175C105.6 105.058 105.759 105 105.959 105H108.384C108.534 105 108.659 105.058 108.759 105.175C108.875 105.275 108.934 105.4 108.934 105.55C108.934 105.633 108.925 105.708 108.909 105.775L104.184 117.375C104.117 117.542 104.017 117.692 103.884 117.825C103.75 117.942 103.559 118 103.309 118H101.059ZM116.37 118.25C114.453 118.25 112.928 117.717 111.795 116.65C110.678 115.583 110.087 114.033 110.02 112C110.02 111.867 110.02 111.692 110.02 111.475C110.02 111.242 110.02 111.058 110.02 110.925C110.087 109.642 110.378 108.542 110.895 107.625C111.412 106.692 112.137 105.983 113.07 105.5C114.003 105 115.095 104.75 116.345 104.75C117.745 104.75 118.912 105.042 119.845 105.625C120.795 106.192 121.503 106.975 121.97 107.975C122.453 108.958 122.695 110.092 122.695 111.375V111.95C122.695 112.117 122.628 112.258 122.495 112.375C122.378 112.492 122.237 112.55 122.07 112.55H113.895C113.895 112.567 113.895 112.6 113.895 112.65C113.895 112.683 113.895 112.717 113.895 112.75C113.912 113.283 114.012 113.775 114.195 114.225C114.395 114.658 114.67 115.008 115.02 115.275C115.387 115.542 115.82 115.675 116.32 115.675C116.737 115.675 117.078 115.617 117.345 115.5C117.612 115.383 117.828 115.242 117.995 115.075C118.178 114.908 118.312 114.767 118.395 114.65C118.545 114.483 118.662 114.383 118.745 114.35C118.845 114.3 118.995 114.275 119.195 114.275H121.795C121.962 114.275 122.095 114.325 122.195 114.425C122.312 114.508 122.362 114.633 122.345 114.8C122.328 115.067 122.187 115.4 121.92 115.8C121.67 116.183 121.295 116.567 120.795 116.95C120.295 117.317 119.67 117.625 118.92 117.875C118.187 118.125 117.337 118.25 116.37 118.25ZM113.895 110.275H118.795V110.225C118.795 109.625 118.695 109.108 118.495 108.675C118.312 108.225 118.037 107.875 117.67 107.625C117.303 107.375 116.862 107.25 116.345 107.25C115.828 107.25 115.387 107.375 115.02 107.625C114.653 107.875 114.37 108.225 114.17 108.675C113.987 109.108 113.895 109.625 113.895 110.225V110.275ZM125.794 118C125.627 118 125.486 117.942 125.369 117.825C125.252 117.708 125.194 117.558 125.194 117.375V105.625C125.194 105.458 125.252 105.317 125.369 105.2C125.486 105.067 125.627 105 125.794 105H128.244C128.411 105 128.552 105.067 128.669 105.2C128.802 105.317 128.869 105.458 128.869 105.625V106.625C129.286 106.108 129.794 105.708 130.394 105.425C131.011 105.142 131.719 105 132.519 105H133.594C133.761 105 133.902 105.058 134.019 105.175C134.136 105.292 134.194 105.442 134.194 105.625V107.775C134.194 107.958 134.136 108.108 134.019 108.225C133.902 108.342 133.761 108.4 133.594 108.4H131.394C130.661 108.4 130.086 108.608 129.669 109.025C129.252 109.425 129.044 110 129.044 110.75V117.375C129.044 117.558 128.986 117.708 128.869 117.825C128.752 117.942 128.602 118 128.419 118H125.794ZM16.2 148C16.0167 148 15.8667 147.942 15.75 147.825C15.6333 147.708 15.575 147.558 15.575 147.375V130.875C15.575 130.692 15.6333 130.542 15.75 130.425C15.8667 130.308 16.0167 130.25 16.2 130.25H18.65C18.8167 130.25 18.9583 130.308 19.075 130.425C19.1917 130.542 19.25 130.692 19.25 130.875V139.325L23.1 135.425C23.2333 135.308 23.35 135.208 23.45 135.125C23.5667 135.042 23.7417 135 23.975 135H26.8C26.9667 135 27.1 135.058 27.2 135.175C27.3 135.275 27.35 135.4 27.35 135.55C27.35 135.617 27.3333 135.692 27.3 135.775C27.2667 135.858 27.2083 135.925 27.125 135.975L22.3 140.825L27.75 147.05C27.9 147.183 27.975 147.317 27.975 147.45C27.975 147.6 27.9167 147.733 27.8 147.85C27.7 147.95 27.575 148 27.425 148H24.525C24.275 148 24.0917 147.958 23.975 147.875C23.875 147.792 23.7583 147.692 23.625 147.575L19.25 142.675V147.375C19.25 147.558 19.1917 147.708 19.075 147.825C18.9583 147.942 18.8167 148 18.65 148H16.2ZM30.3596 148C30.1929 148 30.0512 147.942 29.9346 147.825C29.8179 147.708 29.7596 147.558 29.7596 147.375V135.625C29.7596 135.442 29.8179 135.292 29.9346 135.175C30.0512 135.058 30.1929 135 30.3596 135H32.8096C32.9929 135 33.1429 135.058 33.2596 135.175C33.3762 135.292 33.4346 135.442 33.4346 135.625V136.6C33.8679 136.067 34.4262 135.625 35.1096 135.275C35.7929 134.925 36.6262 134.75 37.6096 134.75C38.5929 134.75 39.4512 134.975 40.1846 135.425C40.9346 135.858 41.5179 136.5 41.9346 137.35C42.3679 138.183 42.5846 139.2 42.5846 140.4V147.375C42.5846 147.558 42.5179 147.708 42.3846 147.825C42.2679 147.942 42.1262 148 41.9596 148H39.3096C39.1262 148 38.9762 147.942 38.8596 147.825C38.7429 147.708 38.6846 147.558 38.6846 147.375V140.55C38.6846 139.667 38.4679 138.983 38.0346 138.5C37.6179 138 37.0012 137.75 36.1846 137.75C35.4012 137.75 34.7762 138 34.3096 138.5C33.8429 138.983 33.6096 139.667 33.6096 140.55V147.375C33.6096 147.558 33.5512 147.708 33.4346 147.825C33.3179 147.942 33.1762 148 33.0096 148H30.3596ZM51.5299 148.25C50.1465 148.25 48.9882 148.025 48.0549 147.575C47.1215 147.108 46.4049 146.45 45.9049 145.6C45.4215 144.75 45.1549 143.758 45.1049 142.625C45.0882 142.292 45.0799 141.917 45.0799 141.5C45.0799 141.067 45.0882 140.692 45.1049 140.375C45.1549 139.225 45.4382 138.233 45.9549 137.4C46.4715 136.55 47.1965 135.9 48.1299 135.45C49.0632 134.983 50.1965 134.75 51.5299 134.75C52.8466 134.75 53.9716 134.983 54.9049 135.45C55.8382 135.9 56.5632 136.55 57.0799 137.4C57.5965 138.233 57.8799 139.225 57.9299 140.375C57.9632 140.692 57.9799 141.067 57.9799 141.5C57.9799 141.917 57.9632 142.292 57.9299 142.625C57.8799 143.758 57.6049 144.75 57.1049 145.6C56.6216 146.45 55.9132 147.108 54.9799 147.575C54.0465 148.025 52.8965 148.25 51.5299 148.25ZM51.5299 145.5C52.3466 145.5 52.9632 145.25 53.3799 144.75C53.7965 144.233 54.0215 143.483 54.0549 142.5C54.0716 142.25 54.0799 141.917 54.0799 141.5C54.0799 141.083 54.0716 140.75 54.0549 140.5C54.0215 139.533 53.7965 138.792 53.3799 138.275C52.9632 137.758 52.3466 137.5 51.5299 137.5C50.7132 137.5 50.0882 137.758 49.6549 138.275C49.2382 138.792 49.0132 139.533 48.9799 140.5C48.9632 140.75 48.9549 141.083 48.9549 141.5C48.9549 141.917 48.9632 142.25 48.9799 142.5C49.0132 143.483 49.2382 144.233 49.6549 144.75C50.0882 145.25 50.7132 145.5 51.5299 145.5ZM63.8033 148C63.57 148 63.3867 147.942 63.2533 147.825C63.1367 147.708 63.045 147.558 62.9783 147.375L59.4033 135.8C59.37 135.717 59.3533 135.633 59.3533 135.55C59.3533 135.4 59.4033 135.275 59.5033 135.175C59.62 135.058 59.7533 135 59.9033 135H62.1033C62.32 135 62.4867 135.058 62.6033 135.175C62.72 135.292 62.795 135.4 62.8283 135.5L65.1033 143.225L67.5283 135.55C67.5617 135.433 67.6367 135.317 67.7533 135.2C67.8867 135.067 68.07 135 68.3033 135H69.7283C69.9617 135 70.1367 135.067 70.2533 135.2C70.3867 135.317 70.47 135.433 70.5033 135.55L72.9283 143.225L75.2033 135.5C75.22 135.4 75.2867 135.292 75.4033 135.175C75.5367 135.058 75.7033 135 75.9033 135H78.1033C78.2533 135 78.3783 135.058 78.4783 135.175C78.595 135.275 78.6533 135.4 78.6533 135.55C78.6533 135.633 78.645 135.717 78.6283 135.8L75.0283 147.375C74.9783 147.558 74.8867 147.708 74.7533 147.825C74.6367 147.942 74.4617 148 74.2283 148H72.3033C72.07 148 71.8867 147.942 71.7533 147.825C71.62 147.708 71.52 147.558 71.4533 147.375L69.0283 139.975L66.5533 147.375C66.5033 147.558 66.4117 147.708 66.2783 147.825C66.145 147.942 65.9617 148 65.7283 148H63.8033ZM20.35 178.25C19.3833 178.25 18.525 178.033 17.775 177.6C17.0417 177.15 16.4667 176.508 16.05 175.675C15.65 174.825 15.45 173.8 15.45 172.6V165.625C15.45 165.442 15.5083 165.292 15.625 165.175C15.7417 165.058 15.8833 165 16.05 165H18.7C18.8833 165 19.0333 165.058 19.15 165.175C19.2667 165.292 19.325 165.442 19.325 165.625V172.45C19.325 174.317 20.1417 175.25 21.775 175.25C22.5583 175.25 23.175 175.008 23.625 174.525C24.0917 174.025 24.325 173.333 24.325 172.45V165.625C24.325 165.442 24.3833 165.292 24.5 165.175C24.6167 165.058 24.7667 165 24.95 165H27.6C27.7667 165 27.9083 165.058 28.025 165.175C28.1417 165.292 28.2 165.442 28.2 165.625V177.375C28.2 177.558 28.1417 177.708 28.025 177.825C27.9083 177.942 27.7667 178 27.6 178H25.15C24.9667 178 24.8167 177.942 24.7 177.825C24.5833 177.708 24.525 177.558 24.525 177.375V176.4C24.0917 177 23.5333 177.458 22.85 177.775C22.1667 178.092 21.3333 178.25 20.35 178.25ZM31.9465 178C31.7798 178 31.6382 177.942 31.5215 177.825C31.4048 177.708 31.3465 177.558 31.3465 177.375V165.625C31.3465 165.442 31.4048 165.292 31.5215 165.175C31.6382 165.058 31.7798 165 31.9465 165H34.3965C34.5798 165 34.7298 165.058 34.8465 165.175C34.9632 165.292 35.0215 165.442 35.0215 165.625V166.6C35.4548 166.067 36.0132 165.625 36.6965 165.275C37.3798 164.925 38.2132 164.75 39.1965 164.75C40.1798 164.75 41.0382 164.975 41.7715 165.425C42.5215 165.858 43.1048 166.5 43.5215 167.35C43.9548 168.183 44.1715 169.2 44.1715 170.4V177.375C44.1715 177.558 44.1048 177.708 43.9715 177.825C43.8548 177.942 43.7132 178 43.5465 178H40.8965C40.7132 178 40.5632 177.942 40.4465 177.825C40.3298 177.708 40.2715 177.558 40.2715 177.375V170.55C40.2715 169.667 40.0548 168.983 39.6215 168.5C39.2048 168 38.5882 167.75 37.7715 167.75C36.9882 167.75 36.3632 168 35.8965 168.5C35.4298 168.983 35.1965 169.667 35.1965 170.55V177.375C35.1965 177.558 35.1382 177.708 35.0215 177.825C34.9048 177.942 34.7632 178 34.5965 178H31.9465ZM47.7918 178C47.6085 178 47.4585 177.942 47.3418 177.825C47.2251 177.708 47.1668 177.558 47.1668 177.375V160.875C47.1668 160.692 47.2251 160.542 47.3418 160.425C47.4585 160.308 47.6085 160.25 47.7918 160.25H50.2918C50.4585 160.25 50.6001 160.308 50.7168 160.425C50.8335 160.542 50.8918 160.692 50.8918 160.875V177.375C50.8918 177.558 50.8335 177.708 50.7168 177.825C50.6001 177.942 50.4585 178 50.2918 178H47.7918ZM59.8516 178.25C57.9349 178.25 56.4099 177.717 55.2766 176.65C54.1599 175.583 53.5682 174.033 53.5016 172C53.5016 171.867 53.5016 171.692 53.5016 171.475C53.5016 171.242 53.5016 171.058 53.5016 170.925C53.5682 169.642 53.8599 168.542 54.3766 167.625C54.8932 166.692 55.6182 165.983 56.5516 165.5C57.4849 165 58.5766 164.75 59.8266 164.75C61.2266 164.75 62.3932 165.042 63.3266 165.625C64.2766 166.192 64.9849 166.975 65.4516 167.975C65.9349 168.958 66.1766 170.092 66.1766 171.375V171.95C66.1766 172.117 66.1099 172.258 65.9766 172.375C65.8599 172.492 65.7182 172.55 65.5516 172.55H57.3766C57.3766 172.567 57.3766 172.6 57.3766 172.65C57.3766 172.683 57.3766 172.717 57.3766 172.75C57.3932 173.283 57.4932 173.775 57.6766 174.225C57.8766 174.658 58.1516 175.008 58.5016 175.275C58.8682 175.542 59.3016 175.675 59.8016 175.675C60.2182 175.675 60.5599 175.617 60.8266 175.5C61.0932 175.383 61.3099 175.242 61.4766 175.075C61.6599 174.908 61.7932 174.767 61.8766 174.65C62.0266 174.483 62.1432 174.383 62.2266 174.35C62.3266 174.3 62.4766 174.275 62.6766 174.275H65.2766C65.4432 174.275 65.5766 174.325 65.6766 174.425C65.7932 174.508 65.8432 174.633 65.8266 174.8C65.8099 175.067 65.6682 175.4 65.4016 175.8C65.1516 176.183 64.7766 176.567 64.2766 176.95C63.7766 177.317 63.1516 177.625 62.4016 177.875C61.6682 178.125 60.8182 178.25 59.8516 178.25ZM57.3766 170.275H62.2766V170.225C62.2766 169.625 62.1766 169.108 61.9766 168.675C61.7932 168.225 61.5182 167.875 61.1516 167.625C60.7849 167.375 60.3432 167.25 59.8266 167.25C59.3099 167.25 58.8682 167.375 58.5016 167.625C58.1349 167.875 57.8516 168.225 57.6516 168.675C57.4682 169.108 57.3766 169.625 57.3766 170.225V170.275ZM73.8006 178.25C72.7673 178.25 71.8756 178.133 71.1256 177.9C70.3923 177.65 69.7923 177.35 69.3256 177C68.8756 176.65 68.5339 176.3 68.3006 175.95C68.0839 175.583 67.9673 175.275 67.9506 175.025C67.9339 174.842 67.9923 174.692 68.1256 174.575C68.2589 174.458 68.3923 174.4 68.5256 174.4H70.9506C71.0006 174.4 71.0506 174.408 71.1006 174.425C71.1506 174.442 71.2006 174.483 71.2506 174.55C71.4673 174.7 71.6923 174.875 71.9256 175.075C72.1589 175.258 72.4256 175.417 72.7256 175.55C73.0423 175.683 73.4339 175.75 73.9006 175.75C74.4506 175.75 74.9173 175.642 75.3006 175.425C75.6839 175.192 75.8756 174.867 75.8756 174.45C75.8756 174.15 75.7839 173.9 75.6006 173.7C75.4339 173.5 75.1089 173.317 74.6256 173.15C74.1423 172.983 73.4256 172.8 72.4756 172.6C71.5756 172.4 70.8089 172.133 70.1756 171.8C69.5423 171.467 69.0673 171.05 68.7506 170.55C68.4339 170.033 68.2756 169.417 68.2756 168.7C68.2756 168.05 68.4756 167.425 68.8756 166.825C69.2923 166.225 69.9006 165.733 70.7006 165.35C71.5006 164.95 72.5006 164.75 73.7006 164.75C74.6173 164.75 75.4173 164.867 76.1006 165.1C76.8006 165.317 77.3839 165.6 77.8506 165.95C78.3173 166.283 78.6673 166.633 78.9006 167C79.1506 167.35 79.2839 167.658 79.3006 167.925C79.3173 168.092 79.2673 168.233 79.1506 168.35C79.0339 168.467 78.9006 168.525 78.7506 168.525H76.5256C76.4423 168.525 76.3673 168.517 76.3006 168.5C76.2339 168.467 76.1756 168.425 76.1256 168.375C75.9256 168.242 75.7173 168.092 75.5006 167.925C75.3006 167.742 75.0589 167.583 74.7756 167.45C74.4923 167.317 74.1256 167.25 73.6756 167.25C73.1256 167.25 72.7006 167.375 72.4006 167.625C72.1173 167.858 71.9756 168.158 71.9756 168.525C71.9756 168.758 72.0506 168.975 72.2006 169.175C72.3506 169.375 72.6589 169.558 73.1256 169.725C73.5923 169.892 74.3006 170.067 75.2506 170.25C76.3839 170.45 77.2839 170.75 77.9506 171.15C78.6173 171.55 79.0923 172.017 79.3756 172.55C79.6756 173.067 79.8256 173.625 79.8256 174.225C79.8256 175.008 79.5923 175.708 79.1256 176.325C78.6589 176.925 77.9756 177.4 77.0756 177.75C76.1923 178.083 75.1006 178.25 73.8006 178.25ZM87.3504 178.25C86.3171 178.25 85.4254 178.133 84.6754 177.9C83.9421 177.65 83.3421 177.35 82.8754 177C82.4254 176.65 82.0837 176.3 81.8504 175.95C81.6337 175.583 81.5171 175.275 81.5004 175.025C81.4837 174.842 81.5421 174.692 81.6754 174.575C81.8087 174.458 81.9421 174.4 82.0754 174.4H84.5004C84.5504 174.4 84.6004 174.408 84.6504 174.425C84.7004 174.442 84.7504 174.483 84.8004 174.55C85.0171 174.7 85.2421 174.875 85.4754 175.075C85.7087 175.258 85.9754 175.417 86.2754 175.55C86.5921 175.683 86.9837 175.75 87.4504 175.75C88.0004 175.75 88.4671 175.642 88.8504 175.425C89.2337 175.192 89.4254 174.867 89.4254 174.45C89.4254 174.15 89.3337 173.9 89.1504 173.7C88.9837 173.5 88.6587 173.317 88.1754 173.15C87.6921 172.983 86.9754 172.8 86.0254 172.6C85.1254 172.4 84.3587 172.133 83.7254 171.8C83.0921 171.467 82.6171 171.05 82.3004 170.55C81.9837 170.033 81.8254 169.417 81.8254 168.7C81.8254 168.05 82.0254 167.425 82.4254 166.825C82.8421 166.225 83.4504 165.733 84.2504 165.35C85.0504 164.95 86.0504 164.75 87.2504 164.75C88.1671 164.75 88.9671 164.867 89.6504 165.1C90.3504 165.317 90.9337 165.6 91.4004 165.95C91.8671 166.283 92.2171 166.633 92.4504 167C92.7004 167.35 92.8337 167.658 92.8504 167.925C92.8671 168.092 92.8171 168.233 92.7004 168.35C92.5837 168.467 92.4504 168.525 92.3004 168.525H90.0754C89.9921 168.525 89.9171 168.517 89.8504 168.5C89.7837 168.467 89.7254 168.425 89.6754 168.375C89.4754 168.242 89.2671 168.092 89.0504 167.925C88.8504 167.742 88.6087 167.583 88.3254 167.45C88.0421 167.317 87.6754 167.25 87.2254 167.25C86.6754 167.25 86.2504 167.375 85.9504 167.625C85.6671 167.858 85.5254 168.158 85.5254 168.525C85.5254 168.758 85.6004 168.975 85.7504 169.175C85.9004 169.375 86.2087 169.558 86.6754 169.725C87.1421 169.892 87.8504 170.067 88.8004 170.25C89.9337 170.45 90.8337 170.75 91.5004 171.15C92.1671 171.55 92.6421 172.017 92.9254 172.55C93.2254 173.067 93.3754 173.625 93.3754 174.225C93.3754 175.008 93.1421 175.708 92.6754 176.325C92.2087 176.925 91.5254 177.4 90.6254 177.75C89.7421 178.083 88.6504 178.25 87.3504 178.25ZM103.009 182.75C102.875 182.75 102.75 182.7 102.634 182.6C102.534 182.5 102.484 182.375 102.484 182.225C102.484 182.192 102.492 182.142 102.509 182.075C102.525 182.025 102.55 181.958 102.584 181.875L104.534 177.2L99.7336 165.875C99.6836 165.742 99.6586 165.633 99.6586 165.55C99.6753 165.4 99.7336 165.275 99.8336 165.175C99.9336 165.058 100.059 165 100.209 165H102.634C102.85 165 103.009 165.058 103.109 165.175C103.209 165.275 103.284 165.383 103.334 165.5L106.434 173.25L109.609 165.5C109.675 165.367 109.759 165.25 109.859 165.15C109.959 165.05 110.117 165 110.334 165H112.709C112.859 165 112.984 165.058 113.084 165.175C113.2 165.275 113.259 165.392 113.259 165.525C113.259 165.608 113.225 165.725 113.159 165.875L106.084 182.25C106.034 182.383 105.95 182.5 105.834 182.6C105.734 182.7 105.575 182.75 105.359 182.75H103.009ZM120.719 178.25C119.336 178.25 118.178 178.025 117.244 177.575C116.311 177.108 115.594 176.45 115.094 175.6C114.611 174.75 114.344 173.758 114.294 172.625C114.278 172.292 114.269 171.917 114.269 171.5C114.269 171.067 114.278 170.692 114.294 170.375C114.344 169.225 114.628 168.233 115.144 167.4C115.661 166.55 116.386 165.9 117.319 165.45C118.253 164.983 119.386 164.75 120.719 164.75C122.036 164.75 123.161 164.983 124.094 165.45C125.028 165.9 125.753 166.55 126.269 167.4C126.786 168.233 127.069 169.225 127.119 170.375C127.153 170.692 127.169 171.067 127.169 171.5C127.169 171.917 127.153 172.292 127.119 172.625C127.069 173.758 126.794 174.75 126.294 175.6C125.811 176.45 125.103 177.108 124.169 177.575C123.236 178.025 122.086 178.25 120.719 178.25ZM120.719 175.5C121.536 175.5 122.153 175.25 122.569 174.75C122.986 174.233 123.211 173.483 123.244 172.5C123.261 172.25 123.269 171.917 123.269 171.5C123.269 171.083 123.261 170.75 123.244 170.5C123.211 169.533 122.986 168.792 122.569 168.275C122.153 167.758 121.536 167.5 120.719 167.5C119.903 167.5 119.278 167.758 118.844 168.275C118.428 168.792 118.203 169.533 118.169 170.5C118.153 170.75 118.144 171.083 118.144 171.5C118.144 171.917 118.153 172.25 118.169 172.5C118.203 173.483 118.428 174.233 118.844 174.75C119.278 175.25 119.903 175.5 120.719 175.5ZM134.559 178.25C133.592 178.25 132.734 178.033 131.984 177.6C131.251 177.15 130.676 176.508 130.259 175.675C129.859 174.825 129.659 173.8 129.659 172.6V165.625C129.659 165.442 129.717 165.292 129.834 165.175C129.951 165.058 130.092 165 130.259 165H132.909C133.092 165 133.242 165.058 133.359 165.175C133.476 165.292 133.534 165.442 133.534 165.625V172.45C133.534 174.317 134.351 175.25 135.984 175.25C136.767 175.25 137.384 175.008 137.834 174.525C138.301 174.025 138.534 173.333 138.534 172.45V165.625C138.534 165.442 138.592 165.292 138.709 165.175C138.826 165.058 138.976 165 139.159 165H141.809C141.976 165 142.117 165.058 142.234 165.175C142.351 165.292 142.409 165.442 142.409 165.625V177.375C142.409 177.558 142.351 177.708 142.234 177.825C142.117 177.942 141.976 178 141.809 178H139.359C139.176 178 139.026 177.942 138.909 177.825C138.792 177.708 138.734 177.558 138.734 177.375V176.4C138.301 177 137.742 177.458 137.059 177.775C136.376 178.092 135.542 178.25 134.559 178.25ZM21.825 208C20.7917 208 19.9083 207.833 19.175 207.5C18.4417 207.15 17.8833 206.617 17.5 205.9C17.1333 205.183 16.95 204.283 16.95 203.2V197.95H15C14.8167 197.95 14.6667 197.892 14.55 197.775C14.4333 197.658 14.375 197.508 14.375 197.325V195.625C14.375 195.442 14.4333 195.292 14.55 195.175C14.6667 195.058 14.8167 195 15 195H16.95V190.875C16.95 190.692 17.0083 190.542 17.125 190.425C17.2583 190.308 17.4083 190.25 17.575 190.25H20.025C20.2083 190.25 20.3583 190.308 20.475 190.425C20.5917 190.542 20.65 190.692 20.65 190.875V195H23.775C23.9417 195 24.0833 195.058 24.2 195.175C24.3167 195.292 24.375 195.442 24.375 195.625V197.325C24.375 197.508 24.3167 197.658 24.2 197.775C24.0833 197.892 23.9417 197.95 23.775 197.95H20.65V202.9C20.65 203.533 20.7583 204.033 20.975 204.4C21.2083 204.75 21.6083 204.925 22.175 204.925H24C24.1667 204.925 24.3083 204.983 24.425 205.1C24.5417 205.217 24.6 205.358 24.6 205.525V207.375C24.6 207.558 24.5417 207.708 24.425 207.825C24.3083 207.942 24.1667 208 24 208H21.825ZM27.3811 208C27.2144 208 27.0727 207.942 26.9561 207.825C26.8394 207.708 26.7811 207.558 26.7811 207.375V195.625C26.7811 195.458 26.8394 195.317 26.9561 195.2C27.0727 195.067 27.2144 195 27.3811 195H29.8311C29.9977 195 30.1394 195.067 30.2561 195.2C30.3894 195.317 30.4561 195.458 30.4561 195.625V196.625C30.8727 196.108 31.3811 195.708 31.9811 195.425C32.5977 195.142 33.3061 195 34.1061 195H35.1811C35.3477 195 35.4894 195.058 35.6061 195.175C35.7227 195.292 35.7811 195.442 35.7811 195.625V197.775C35.7811 197.958 35.7227 198.108 35.6061 198.225C35.4894 198.342 35.3477 198.4 35.1811 198.4H32.9811C32.2477 198.4 31.6727 198.608 31.2561 199.025C30.8394 199.425 30.6311 200 30.6311 200.75V207.375C30.6311 207.558 30.5727 207.708 30.4561 207.825C30.3394 207.942 30.1894 208 30.0061 208H27.3811ZM40.0203 212.75C39.887 212.75 39.762 212.7 39.6453 212.6C39.5453 212.5 39.4953 212.375 39.4953 212.225C39.4953 212.192 39.5036 212.142 39.5203 212.075C39.537 212.025 39.562 211.958 39.5953 211.875L41.5453 207.2L36.7453 195.875C36.6953 195.742 36.6703 195.633 36.6703 195.55C36.687 195.4 36.7453 195.275 36.8453 195.175C36.9453 195.058 37.0703 195 37.2203 195H39.6453C39.862 195 40.0203 195.058 40.1203 195.175C40.2203 195.275 40.2953 195.383 40.3453 195.5L43.4453 203.25L46.6203 195.5C46.687 195.367 46.7703 195.25 46.8703 195.15C46.9703 195.05 47.1286 195 47.3453 195H49.7203C49.8703 195 49.9953 195.058 50.0953 195.175C50.212 195.275 50.2703 195.392 50.2703 195.525C50.2703 195.608 50.237 195.725 50.1703 195.875L43.0953 212.25C43.0453 212.383 42.962 212.5 42.8453 212.6C42.7453 212.7 42.587 212.75 42.3703 212.75H40.0203ZM52.7443 208C52.561 208 52.411 207.942 52.2943 207.825C52.1777 207.708 52.1193 207.558 52.1193 207.375V204.575C52.1193 204.392 52.1777 204.242 52.2943 204.125C52.411 204.008 52.561 203.95 52.7443 203.95H55.5443C55.7277 203.95 55.8777 204.008 55.9943 204.125C56.111 204.242 56.1693 204.392 56.1693 204.575V207.375C56.1693 207.558 56.111 207.708 55.9943 207.825C55.8777 207.942 55.7277 208 55.5443 208H52.7443Z" fill="#FFC6AC"/>
</g>
<defs>
<clipPath id="clip0_2_10">
<rect width="200" height="484" fill="white"/>
</clipPath>
</defs>
</svg>
