<svg width="400" height="484" viewBox="0 0 400 484" fill="none" xmlns="http://www.w3.org/2000/svg">
<mask id="mask0_1_34" style="mask-type:alpha" maskUnits="userSpaceOnUse" x="0" y="0" width="400" height="484">
<rect width="400" height="484" fill="#FFC6AC"/>
</mask>
<g mask="url(#mask0_1_34)">
<path d="M111.636 516.074C105.931 483.041 118.111 472.718 148.176 485.107C178.241 497.495 190.421 487.172 184.716 454.139C179.011 421.106 191.191 410.783 221.256 423.172C251.321 435.56 263.501 425.237 257.796 392.204C252.091 359.171 264.271 348.848 294.336 361.237C324.401 373.625 336.581 363.302 330.876 330.269C325.171 297.236 337.351 286.913 367.416 299.301C397.481 311.69 409.66 301.367 403.955 268.334C398.25 235.301 410.43 224.978 440.495 237.366C470.56 249.755 482.74 239.432 477.035 206.399" stroke="#435B66" stroke-width="8"/>
<path d="M128.439 538.534C122.734 505.5 134.914 495.178 164.979 507.566C195.044 519.954 207.224 509.632 201.519 476.599C195.814 443.565 207.994 433.243 238.059 445.631C268.124 458.019 280.304 447.697 274.599 414.664C268.894 381.63 281.074 371.308 311.139 383.696C341.204 396.084 353.384 385.762 347.679 352.728C341.974 319.695 354.154 309.373 384.219 321.761C414.284 334.149 426.464 323.827 420.758 290.793C415.053 257.76 427.233 247.438 457.298 259.826C487.363 272.214 499.543 261.892 493.838 228.858" stroke="#435B66" stroke-width="8"/>
<path d="M151.5 560.8C145.795 527.767 157.975 517.445 188.04 529.833C218.105 542.221 230.285 531.899 224.58 498.865C218.875 465.832 231.055 455.509 261.12 467.898C291.185 480.286 303.365 469.964 297.66 436.93C291.955 403.897 304.135 393.574 334.2 405.963C364.265 418.351 376.445 408.028 370.74 374.995C365.035 341.962 377.215 331.639 407.28 344.028C437.345 356.416 449.525 346.093 443.82 313.06C438.114 280.027 450.294 269.704 480.359 282.093C510.424 294.481 522.604 284.158 516.899 251.125" stroke="#435B66" stroke-width="8"/>
<path d="M175.011 585.076C169.306 552.043 181.486 541.72 211.551 554.109C241.616 566.497 253.796 556.174 248.091 523.141C242.386 490.108 254.566 479.785 284.631 492.174C314.696 504.562 326.876 494.239 321.171 461.206C315.466 428.173 327.646 417.85 357.71 430.239C387.775 442.627 399.955 432.304 394.25 399.271C388.545 366.238 400.725 355.915 430.79 368.303C460.855 380.692 473.035 370.369 467.33 337.336C461.625 304.303 473.805 293.98 503.87 306.368C533.935 318.757 546.115 308.434 540.41 275.401" stroke="#435B66" stroke-width="8"/>
<path d="M195.163 605.884C189.458 572.851 201.638 562.528 231.703 574.916C261.768 587.305 273.948 576.982 268.243 543.949C262.538 510.916 274.718 500.593 304.783 512.981C334.848 525.37 347.028 515.047 341.323 482.014C335.618 448.981 347.798 438.658 377.862 451.046C407.927 463.435 420.107 453.112 414.402 420.079C408.697 387.046 420.877 376.723 450.942 389.111C481.007 401.5 493.187 391.177 487.482 358.144C481.777 325.11 493.957 314.788 524.022 327.176C554.087 339.565 566.267 329.242 560.562 296.209" stroke="#435B66" stroke-width="8"/>
<rect x="290.4" y="82.0789" width="35.9205" height="37.4445" transform="rotate(-27.6669 290.4 82.0789)" stroke="#435B66" stroke-width="8"/>
<rect x="284.4" y="-10.0719" width="35.5957" height="65.8117" transform="rotate(-27.6669 284.4 -10.0719)" stroke="#435B66" stroke-width="8"/>
<rect x="404.638" y="19.6458" width="44" height="80" transform="rotate(48.5819 404.638 19.6458)" stroke="#435B66" stroke-width="8"/>
</g>
</svg>
